#tb 0: 1/25
0,          0,          0,        1,   152064, 0x6077db38
0,          2,          2,        1,   152064, 0x3d4f1b15
0,          4,          4,        1,   152064, 0x447594f6
0,          6,          6,        1,   152064, 0xb6258a38
0,          8,          8,        1,   152064, 0x296abb09
0,         10,         10,        1,   152064, 0x0fad069d
0,         12,         12,        1,   152064, 0x92c78c0d
0,         14,         14,        1,   152064, 0x645531fd
0,         16,         16,        1,   152064, 0xe7652880
0,         18,         18,        1,   152064, 0x496e1151
0,         20,         20,        1,   152064, 0x7f7cfb06
0,         22,         22,        1,   152064, 0x45e9affe
0,         24,         24,        1,   152064, 0xaedb2d3a
0,         26,         26,        1,   152064, 0x03fd9ae6
0,         28,         28,        1,   152064, 0x2084e84d
0,         30,         30,        1,   152064, 0xcf05faf6
0,         32,         32,        1,   152064, 0x84c746c2
0,         34,         34,        1,   152064, 0x898a6321
0,         36,         36,        1,   152064, 0xe12b7fe9
0,         38,         38,        1,   152064, 0x12feb756
0,         40,         40,        1,   152064, 0xd813601a
0,         42,         42,        1,   152064, 0xc0f3d385
0,         44,         44,        1,   152064, 0xfca3a63f
0,         46,         46,        1,   152064, 0xa0796f44
0,         48,         48,        1,   152064, 0x1d26af11
